<svg width="2610" height="755" viewBox="0 0 2610 755" fill="none" xmlns="http://www.w3.org/2000/svg">
<path d="M410.211 358.66C448.457 354.344 504.908 364.894 540.997 377.852L540.943 525.461C540.943 550.532 540.46 575.928 541.446 600.94C542.065 616.638 545.249 626.723 562.084 628.762C562.397 631.675 562.668 634.608 562.792 637.592C564.835 686.596 496.715 705.388 466.773 671.991C460.496 664.99 457.88 658.049 455.027 649.092C447.595 659.317 438.069 666.959 427.812 674.1C413.141 684.028 395.431 690.08 377.971 691.361C296.431 696.571 264.168 632.948 258.489 562.655C249.909 456.464 295.052 367.671 410.211 358.66ZM390.722 606.021C410.235 612.077 424.464 610.417 439.844 596.57L439.847 443.411C430.66 442.33 421.273 441.248 412.014 442.127C360.895 454.862 352.66 524.88 362.842 568.405C366.201 582.764 373.647 596.19 386.574 603.865C387.919 604.654 389.304 605.374 390.722 606.021Z" fill="#322A22"/>
<path d="M505.411 12.5561L507.51 12.6075C540.158 13.5174 572.118 23.187 595.031 47.5365C618.745 72.7363 624.66 104.916 623.758 137.672C620.884 242.043 550.425 294.491 454.519 314.17C403.167 323.831 350.504 327.513 304.143 354.036C272.545 372.113 252.375 395.46 235.15 427.014C234.461 428.275 232.393 427.947 231.263 427.874C221.768 420.469 230.732 407.179 235.148 398.181C263.125 341.178 316.73 304.24 375.944 285.075C396.57 278.399 418.021 274.763 438.794 268.642C504.541 249.226 568.971 193.354 545.11 117.568C528.374 76.1637 491.941 70.7682 452.015 82.661C429.66 89.3199 414.209 102.956 398.89 119.836C392.428 126.956 384.754 139.265 377.688 144.969C372.192 144.113 367.029 132.213 363.907 127.126C358.61 118.613 352.454 110.664 345.537 103.406C315.344 71.8065 276.819 67.235 244.568 98.3582C204.537 136.99 208.038 214.253 239.106 256.964C243.553 263.079 256.469 273.867 256.396 280.331L254.703 281.387C254.226 281.345 252.472 281.123 252.065 280.896C188.794 245.679 163.077 170.218 182.348 102.492C203.368 28.6231 285.349 -17.6877 348.028 38.586C363.225 52.2293 371.519 65.7631 380.949 83.3651C385.896 76.7564 391.178 70.4044 396.773 64.334C425.754 32.9703 462.282 14.2109 505.411 12.5561Z" fill="#E40426"/>
<path d="M58.3746 274.466C77.5514 274.207 109.621 272.278 123.897 286.967C132.54 295.86 130.566 327.51 130.565 340.293L130.555 399.876L130.487 590.156H231.845C232.053 625.039 232.194 670.612 192.477 683.036C178.495 686.371 143.645 685.226 127.907 685.224L21.1496 685.155L21.1453 419.108L21.2188 344.78C21.2385 321.978 22.369 301.219 17.9753 278.788C31.5108 276.4 44.6861 275.331 58.3746 274.466Z" fill="#322A22"/>
<path d="M756.506 358.386C778.177 354.697 799.536 364.499 804.588 386.926C809.825 410.175 802.639 431.601 795.242 453.268C765.937 445.234 726.355 444.119 702.997 466.333V685.155H617.5H598.844V364.489L675.291 364.49C678.044 377.657 681.927 392.302 685.108 405.502C688.025 398.995 691.783 392.9 696.287 387.373C712.114 368.248 732.493 360.727 756.506 358.386Z" fill="#322A22"/>
<path d="M1478.91 558.49C1514.26 554.464 1546.18 579.835 1550.24 615.177C1554.3 650.518 1528.96 682.466 1493.62 686.559C1458.24 690.657 1426.24 665.275 1422.17 629.887C1418.11 594.498 1443.52 562.522 1478.91 558.49ZM1495.24 668.832C1547.6 655.31 1541.57 569.643 1476.78 576.169C1424.52 590.603 1431.77 675.662 1495.24 668.832Z" fill="#322A22"/>
<path d="M1376.7 361.49C1412.24 358.679 1443.32 385.254 1446.05 420.799C1448.78 456.345 1422.14 487.358 1386.59 490.013C1351.15 492.661 1320.25 466.118 1317.52 430.682C1314.8 395.246 1341.27 364.292 1376.7 361.49ZM1391.9 471.835C1443.21 456.387 1436.47 373.72 1372.91 379.169C1315.88 395.763 1332.27 482.536 1391.9 471.835Z" fill="#322A22"/>
<path d="M1231.93 361.421C1267.37 359.147 1297.98 385.976 1300.36 421.412C1302.75 456.848 1276.01 487.534 1240.58 490.029C1205 492.534 1174.15 465.657 1171.75 430.065C1169.36 394.472 1196.33 363.705 1231.93 361.421ZM1246.59 471.672C1297.32 456.845 1290.34 373.387 1227.76 379.201C1170.63 393.229 1185.96 483.84 1246.59 471.672Z" fill="#322A22"/>
<path d="M1765.47 561.151L1796.26 561.004C1836.36 561.187 1860.27 581.874 1860.25 623.805C1860.24 641.678 1854.53 657.192 1841.53 669.744C1840.34 670.766 1839.12 671.742 1837.86 672.669C1822.26 684.099 1806.93 684.133 1788.39 683.927C1783.76 683.876 1764.87 685.504 1762.17 680.897C1759.52 676.366 1759.74 666.45 1759.7 661.069C1759.48 636.975 1760.31 612.736 1759.81 588.639C1759.65 579.078 1756.89 567.17 1765.47 561.151ZM1779 668.002C1797.23 668.169 1814.54 670.134 1828.65 656.393C1844.18 637.91 1844.58 602.328 1825.54 585.989C1812.62 574.897 1794.9 576.955 1779 577.149V668.002Z" fill="#322A22"/>
<path d="M1711.4 364.276C1727.06 363.748 1768.96 362.166 1782.21 367.992C1790.52 371.56 1797.02 378.351 1800.22 386.805C1808.3 407.871 1798.18 427.675 1777.52 435.57C1782.46 445.666 1803.36 477.162 1795.56 486.126C1785.76 491.425 1781.33 483.603 1777.62 476.353C1772.26 464.591 1764.3 449.637 1758.43 437.847H1724.84C1724.84 451.532 1725.04 465.237 1724.76 478.916C1724.64 484.749 1718.17 488.21 1712.9 487.365C1706.57 486.349 1705.56 480.927 1705.56 475.466C1705.56 440.547 1704.86 405.417 1705.9 370.553C1705.98 367.615 1709.19 365.683 1711.4 364.276ZM1776.64 415.973C1785.11 403.129 1785.94 387.555 1768.78 382.25C1756.88 378.572 1737.41 380.038 1724.84 380.152V421.844C1741.02 421.991 1764.39 425.057 1776.64 415.973Z" fill="#322A22"/>
<path d="M1315.31 561.152C1331.4 561.142 1361.59 559.238 1376.19 561.849C1413.62 568.547 1419.22 616.459 1381.63 632.57C1387.3 643.489 1404.12 669.848 1401.34 680.318C1394.1 689.661 1386.61 682.592 1382.62 674.749L1362.5 634.51L1328.85 634.487C1328.9 648.395 1329.04 662.415 1328.78 676.265C1328.67 681.925 1322.52 684.92 1317.49 684.004C1310.86 682.796 1309.67 678.935 1309.59 672.919C1309.16 639.903 1309.52 606.845 1309.52 573.821C1309.51 566.621 1309.3 565.343 1315.31 561.152ZM1380.7 612.873C1389.25 600.093 1390.11 584.188 1372.92 579.071C1361.05 575.538 1341.35 577.048 1328.84 577.152L1328.85 618.513C1344.78 618.633 1368.56 621.617 1380.7 612.873Z" fill="#322A22"/>
<path d="M2233.42 561.151C2249.86 561.229 2281.98 559.024 2296.95 562.329C2332.66 570.21 2336.51 618.219 2300.25 632.385C2304.99 642.846 2322.58 670.021 2320.16 679.42C2319.74 681.096 2318.62 682.515 2317.09 683.322C2308.83 687.667 2304.18 680.659 2301 674.512L2280.99 634.488L2247.15 634.51C2247.28 645.296 2250.04 674.688 2242.76 683.182C2239.05 687.504 2228.35 683.247 2228.23 675.313C2227.72 640.145 2227.68 604.662 2228.18 569.473C2228.24 565.165 2230.3 563.862 2233.42 561.151ZM2247.15 618.49C2262.06 618.604 2288.74 621.748 2299.35 612.571C2303.6 606.454 2305.74 601.48 2304.5 593.654C2300.93 571.005 2264.73 577.032 2247.15 577.155V618.49Z" fill="#322A22"/>
<path d="M1477.27 364.214C1496.83 364.089 1518.01 363.171 1537.22 364.744C1570.28 367.449 1579.71 413.56 1555.34 433.169C1543.62 442.593 1529.49 440.959 1515.5 440.847L1490.15 440.848C1490.03 452.612 1491.06 464.442 1490.19 476.151C1489.71 482.505 1486.28 488.777 1479.14 487.431C1473.18 486.308 1471.1 482.328 1471.03 476.589C1470.76 453.528 1470.98 430.487 1470.96 407.426C1471 395.126 1470.55 382.5 1471.46 370.278C1471.68 367.564 1475.05 365.531 1477.27 364.214ZM1490.15 424.847C1506.69 424.996 1530.65 428.123 1543.17 418.652C1547.9 411.603 1550.17 406.25 1548.43 397.399C1543.81 373.865 1508.71 380.289 1490.15 380.155V424.847Z" fill="#322A22"/>
<path d="M1633.72 560.964C1639.79 560.647 1644.56 560.194 1648.81 565.472C1656.49 575.012 1663.04 585.626 1669.81 595.847L1708.52 654.353C1708.36 626.588 1707.38 598.834 1707.82 571.046C1708.06 555.383 1726.6 559.331 1726.87 569.241C1727.43 589.117 1726.94 609.301 1727.06 629.208C1727.05 644.352 1727.21 659.672 1726.78 674.803C1726.66 679.197 1723.45 681.528 1720.26 683.993C1713.58 684.348 1709.45 684.925 1704.89 679.083C1697.27 669.309 1690.77 658.572 1683.96 648.193L1645.83 590.114C1645.74 618.207 1647.18 646.482 1646.48 674.614C1646.17 687.304 1627.68 688.146 1627.41 674.275C1626.72 639.61 1626.88 604.813 1627.41 570.151C1627.48 565.864 1630.6 563.254 1633.72 560.964Z" fill="#322A22"/>
<path d="M1867.51 363.104C1883.69 363.146 1885.28 371.335 1890.05 384.5C1901.02 414.798 1912.85 444.874 1923.15 475.393C1924.66 479.376 1923 485.106 1918.83 486.792C1905.57 492.155 1899.11 463.455 1896.11 454.847H1873.5L1844.3 454.848C1842.7 459.391 1830.64 504.921 1816.88 481.343C1815.36 478.731 1818.65 469.992 1819.98 466.482C1832.08 434.528 1843.03 401.873 1856.17 370.346C1857.99 365.973 1863.32 364.322 1867.51 363.104ZM1849.11 439.846L1871.5 439.844L1891.02 439.846C1884.45 421.212 1877.38 399.68 1870.09 381.56C1863.69 399.499 1856.21 422.425 1849.11 439.846Z" fill="#322A22"/>
<path d="M2260.24 363.165C2269.82 362.837 2275.94 365.203 2279.53 374.623C2292.2 407.929 2305.11 441.474 2316.47 475.235C2320.26 486.5 2305.21 493.914 2299.08 479.995C2295.46 471.79 2292.51 463.237 2289.35 454.847H2267.5H2237.78C2234.45 463.556 2228.16 492.185 2215.22 486.796C2213.04 485.914 2211.34 484.145 2210.55 481.933C2209.11 478.002 2211.72 471.121 2213.15 467.277C2225.08 435.393 2236.26 403.14 2248.87 371.534C2250.84 366.61 2255.68 364.71 2260.24 363.165ZM2242.78 439.846L2264.5 439.844L2284.46 439.846C2281.31 430.802 2267.57 387.858 2263.31 381.658L2242.78 439.846Z" fill="#322A22"/>
<path d="M2439.85 560.182C2448.19 559.836 2455.9 560.361 2459.6 569.231C2467.24 587.546 2473.73 606.41 2480.64 625.028C2486.33 640.372 2492.24 655.777 2497.33 671.316C2498.96 676.251 2497.74 681.958 2492.47 683.967C2480.28 688.612 2473.36 659.651 2470.47 651.51H2448.5L2418.88 651.487C2415.99 659.019 2409.15 682.437 2402.57 684.026C2379.92 689.495 2399.19 650.306 2400.72 646.158L2419.82 594.689C2422.31 588.025 2424.95 581.089 2427.44 574.468C2430.75 565.673 2431.26 564.11 2439.85 560.182ZM2423.96 636.512L2445.5 636.49L2465.35 636.514C2462.81 629.148 2446.85 581.455 2444.31 578.649C2438.22 595.884 2429 619.535 2423.96 636.512Z" fill="#322A22"/>
<path d="M1100.84 560.182C1112.51 559.698 1117.88 561.323 1122.2 572.926C1134.41 605.886 1147.41 638.841 1158.49 672.181C1162.17 683.26 1147.24 690.555 1141.13 676.896C1137.41 668.579 1134.46 660.047 1131.29 651.51H1109.5L1079.85 651.487C1076.32 660.567 1072.15 677.705 1064.34 683.528C1058.84 687.626 1049.99 681.049 1052.5 672.52C1055.58 662.071 1059.36 652.392 1063.14 642.176L1084.19 585.463C1089.05 572.462 1089.13 565.525 1100.84 560.182ZM1084.8 636.513L1106.5 636.49L1126.37 636.514C1123.92 629.44 1108.35 582.327 1105.27 578.638L1084.8 636.513Z" fill="#322A22"/>
<path d="M1231.54 559.405C1232.76 559.266 1233.99 559.175 1235.22 559.134C1243.19 558.855 1262.95 561.261 1270.17 566.519C1274.31 569.534 1277.16 574.97 1272.75 579.502C1267.37 581.549 1262.07 580.43 1256.71 578.838C1227.64 569.724 1198.57 580.164 1192.42 612.477C1183.64 658.649 1228.9 685.627 1266.84 659.481V633.996C1257.65 633.895 1235.83 637.641 1232.74 627.659C1233.31 623.658 1233.76 623.073 1236.23 619.816C1289.61 615.092 1283.98 618.44 1283 665.306L1282.69 665.712C1274.39 676.563 1258.03 683.694 1244.02 685.42C1184.56 692.745 1149.32 630.011 1184.27 582.527C1195.09 567.821 1213.13 561.281 1231.54 559.405Z" fill="#322A22"/>
<path d="M1598.24 364.489C1618.82 364.623 1639.41 364.147 1659.99 364.216C1667.92 364.243 1676.89 362.747 1679.04 372.005C1676.51 385.103 1625.12 380.246 1611.84 380.155V419.513C1623.92 419.378 1636.03 419.166 1648.1 419.188C1655.6 419.202 1666.1 418.313 1669.63 426.141C1669.11 429.739 1668.97 430.308 1666.72 433.116C1661.64 436.552 1621.12 435.043 1611.84 434.996V471.002C1625.81 470.921 1677.91 465.881 1681.01 479.419C1680.49 481.719 1679.88 483.595 1677.97 485.117C1674.22 488.101 1611.24 487.792 1602.79 486.86C1600.19 486.574 1596.36 486.028 1594.74 483.865C1592.85 481.344 1592.45 475.339 1592.24 472.203C1590.86 451.653 1592.05 430.266 1592.1 409.636C1592.12 398.105 1590.37 381.353 1592.75 370.52C1593.45 367.337 1595.59 366.105 1598.24 364.489Z" fill="#322A22"/>
<path d="M1888.88 561.051C1892.44 560.816 1897.43 560.249 1900.27 562.862C1906.37 568.464 1902.22 629.443 1902.99 641.709C1903.51 649.798 1906.08 657.663 1912.44 663.058C1918.52 668.205 1926.96 670.187 1934.77 669.504C1942.85 668.798 1951.59 665.521 1956.1 658.449C1964.64 645.071 1960.97 597.287 1960.88 579.74C1960.86 575.138 1959.89 567.401 1963.07 563.756C1964.85 561.715 1967.2 560.265 1969.97 560.171C1972.39 560.088 1974.63 561.101 1976.31 562.826C1981.47 568.123 1980.34 574.719 1980.15 581.5C1980.06 602.517 1980.72 624.09 1980.06 645.06C1979.54 656.47 1975.31 666.965 1966.52 674.419C1946.97 690.986 1909.98 689.869 1893.22 669.773C1889.08 664.796 1886.28 658.849 1885.07 652.491C1883.83 646.23 1883.65 639.236 1883.85 632.775C1884.46 612.078 1883.67 591.325 1883.94 570.667C1884 565.794 1885.43 563.912 1888.88 561.051Z" fill="#322A22"/>
<path d="M2042.54 559.397C2051.27 557.698 2097.6 561.34 2086.06 577.744C2079.86 586.55 2051.47 569.087 2036.96 577.537C2016.22 589.618 2027.4 605.299 2045.37 611.023C2063.42 616.769 2090.94 622.862 2092.93 645.758C2094.61 675.302 2075.88 683.669 2050.05 685.874C2039.12 685.733 1998.85 684.6 2006.4 666.497C2007.26 665.586 2009.17 663.597 2010.37 663.545C2022.87 663.008 2034.79 671.624 2048.34 669.9C2054.66 669.355 2063.61 668.277 2067.83 663.058C2083.79 643.543 2057.76 634.455 2042.99 630.306C2027.09 625.841 2006.75 617.528 2005.24 598.222C2003.19 571.952 2018.86 561.98 2042.54 559.397Z" fill="#322A22"/>
<path d="M2100.7 363.954C2103.19 363.864 2106.5 363.527 2108.77 364.681C2115.82 368.253 2142.12 451.605 2146.5 464.902C2150.76 451.853 2176.3 367.768 2185.3 363.521C2187.13 362.657 2188.78 362.294 2190.74 363.042C2193.06 363.929 2194.83 366.464 2195.72 368.681C2198.56 375.784 2195.55 381.088 2192.93 387.704C2188.82 400.817 2162.59 477.674 2156.05 483.853C2153.53 486.228 2149.59 487.742 2146.13 487.602C2142.23 487.444 2138.02 485.721 2135.39 482.767C2131.38 478.249 2094.58 376.99 2095.04 371.857C2095.39 368.111 2098.02 366.226 2100.7 363.954Z" fill="#322A22"/>
<path d="M1116.5 362.496C1122.84 362.3 1161.37 363.425 1151.49 380.992C1150.94 382.131 1148.8 383.298 1147.53 383.2C1133.99 382.137 1124.16 377.524 1110.16 379.648C1057.69 387.603 1063.23 472.003 1116.92 472.654C1129.04 472.801 1136.8 469.269 1148.25 467.261C1152.9 470.089 1156.65 475.709 1151.85 480.415C1144.91 486.672 1134.29 487.963 1125.27 488.92C1064.78 495.337 1031.26 430.364 1067.66 383.637C1078.73 369.415 1098.31 363.648 1116.5 362.496Z" fill="#322A22"/>
<path d="M2108.38 561.151C2120.52 561.161 2200.37 559.051 2205.22 563.368C2206.67 564.659 2207.74 566.879 2207.77 568.829C2207.8 570.965 2206.54 573.624 2205.05 575.112C2201.34 578.79 2172 577.058 2165.85 576.997V646.5C2166 655.589 2167.73 674.942 2162.74 681.895C2158.16 685.213 2152.62 684.895 2148.4 681.2C2144.33 674.298 2146.13 590.528 2146.15 576.997C2137.78 576.947 2088.01 582.188 2108.38 561.151Z" fill="#322A22"/>
<path d="M1936.38 364.033C1949.44 365.246 2026.8 361.987 2031.45 366.384C2033.09 367.932 2034.19 369.925 2034.2 372.236C2034.2 374.425 2033.84 375.848 2032.24 377.394C2026.4 383.049 2000.28 380.258 1992.15 380.155V451.5C1992.08 460.285 1992.78 468.639 1992.15 477.532C1991.2 490.952 1974.22 490.442 1973.24 479.396C1972.26 468.435 1972.74 456.432 1972.75 445.301L1972.84 380.155C1962.2 380.044 1939.32 382.95 1932.06 376.455C1928.76 370.851 1931.66 367.157 1936.38 364.033Z" fill="#322A22"/>
<path d="M2521.91 561.058C2523.38 560.926 2524.85 560.843 2526.32 560.809C2532.08 560.717 2536.16 563.006 2536.56 569.208C2537.28 580.132 2536.96 591.259 2536.94 602.223L2536.85 668.002C2544.4 667.939 2618.34 661.26 2593.51 683.846C2583.5 683.88 2524.58 685.884 2520.43 681.688C2517.5 678.725 2517.48 668.195 2517.42 664.246C2517.09 643.26 2517.34 622.228 2517.36 601.239C2517.38 590.586 2516.01 577.3 2518.23 566.935C2518.76 564.5 2520.22 562.806 2521.91 561.058Z" fill="#322A22"/>
<path d="M1580.57 560.918C1587.33 560.533 1594.19 560.987 1594.58 569.408C1595.24 583.835 1594.93 598.43 1594.96 612.874C1594.99 633.212 1594.98 653.54 1594.78 673.871C1594.72 679.226 1593.28 680.571 1589.43 684.091C1588.45 684.143 1587.48 684.178 1586.51 684.196C1583.28 684.244 1580.51 684.082 1578.11 681.698C1578 681.598 1577.91 681.494 1577.81 681.394C1577.62 681.211 1577.43 681.035 1577.26 680.84C1574.35 677.499 1574.56 580.568 1575.45 568.167C1575.69 564.906 1578.27 562.941 1580.57 560.918Z" fill="#322A22"/>
<path d="M2353.7 560.876C2354.33 560.835 2354.96 560.817 2355.59 560.821C2361.45 560.856 2367.03 561.727 2367.21 568.888C2368.06 603.454 2367.48 638.134 2367.51 672.72C2367.52 678.915 2366.89 679.874 2362.38 684.087C2354.03 684.43 2348.6 683.814 2348.43 673.988C2347.83 638.478 2347.76 602.793 2348.41 567.293C2348.46 564.665 2351.82 562.281 2353.7 560.876Z" fill="#322A22"/>
<path d="M2060.75 363.892C2066.88 363.834 2073.8 364.648 2073.9 372.466C2074.32 405.679 2074.02 438.923 2074.03 472.142C2074.03 480.613 2074.93 482.617 2067.66 487.599C2066.16 487.579 2064.64 487.479 2063.15 487.333C2060.7 487.092 2058.26 486.46 2056.7 484.382C2053.81 480.539 2053.34 378.459 2055.22 369.187C2055.68 366.925 2058.98 365.099 2060.75 363.892Z" fill="#322A22"/>
</svg>
