<svg width="2603" height="737" viewBox="0 0 2603 737" fill="none" xmlns="http://www.w3.org/2000/svg">
<path d="M408.135 370.279C451.111 368.712 493.991 375.371 534.468 389.898L534.408 543.758C534.406 568.835 533.069 601.338 536.564 625.961C536.734 636.722 554.463 638.782 555.469 645.586C562.045 690.03 509.407 711.775 474.269 695.106C459.393 688.049 452.899 674.529 448.49 661.319C441.039 670.958 431.146 679.302 421.124 686.109C407.074 695.851 389.499 701.738 372.713 703.172C291.115 709.575 257.063 645.482 251.923 574.513C243.787 462.187 290.378 379.734 408.135 370.279ZM384.619 618.158C403.748 624.093 418.01 622.299 433.047 608.699V455.372C423.69 454.26 414.43 453.161 404.986 454.149C353.677 467.821 345.885 537.991 356.638 581.975C360.003 595.742 367.874 608.985 380.447 616.105C381.8 616.864 383.193 617.549 384.619 618.158Z" fill="white"/>
<path d="M485.884 25.3522C523.272 22.1536 562.858 31.467 588.954 60.2974C613.885 87.8411 617.678 117.365 617.032 152.121C615.161 252.658 540.422 308.594 447.918 326.126C397.496 336.513 348.381 338.13 301.719 363.786C277.34 377.19 258.302 393.42 241.974 416.481C237.949 422.166 234.404 432.423 229.163 437.475C227.086 439.477 225.962 439.213 223.609 439.026C222.006 437.665 220.557 436.739 220.39 434.337C219.759 425.263 231.337 404.616 235.841 396.951C266.304 344.983 320.066 311.687 376.73 294.791C393.332 289.743 410.398 286.819 427.122 282.169C491.193 264.354 555.263 214.984 541.627 140.585C518.396 52.7816 411.835 90.4378 378.548 149.744C376.277 153.789 373.196 157.503 368.412 156.677C365.073 153.297 357.548 139.601 354.126 134.433C343.961 117.536 318.321 92.3114 297.963 90.3041C204.465 81.0852 187.173 211.835 233.433 270.271C238.428 276.581 250.89 286.994 249.67 292.752C248.126 293.318 246.92 293.731 245.299 292.832C181.732 257.564 155.777 179.795 176.572 111.805C193.499 56.4612 247.749 11.8825 306.376 29.7475C338.108 39.4171 359.897 67.2727 374.326 95.635C375.6 93.8938 376.893 92.1671 378.206 90.4553C405.016 55.5109 441.758 31.1043 485.884 25.3522Z" fill="white"/>
<path d="M55.8727 286.436C72.6879 283.884 116.782 286.884 121.663 306.831C124.568 318.703 124.006 338.776 124.006 351.507L124.002 410.393L123.956 602.192L225.146 602.191C225.446 639.585 225.577 685.094 181.792 696.046C171.869 697.89 137.065 697.209 125.541 697.208L14.8498 697.15L14.8398 433.575L14.9194 359.54C14.9426 335.45 16.0249 314.395 11.3953 290.677C26.1145 288.308 40.9711 286.892 55.8727 286.436Z" fill="white"/>
<path d="M750.581 370.226C814.134 369.099 803.066 422.012 788.754 465.239C757.969 457.273 721.681 455.907 696.463 478.067L696.468 697.15H608.5H592.047L592.044 376.532H668.517C672.067 389.477 675.299 404.359 678.484 417.539C693.724 385.846 716.859 374.175 750.581 370.226Z" fill="white"/>
<path d="M1216.39 374.644C1251.4 367.378 1285.64 390.015 1292.66 425.08C1299.69 460.145 1276.81 494.223 1241.7 501.005C1206.93 507.721 1173.26 485.118 1166.3 450.394C1159.34 415.669 1181.71 381.839 1216.39 374.644ZM1230.96 485.087C1292.74 476.401 1283.48 392.722 1230.23 390.616C1169.78 392.71 1170.87 483.628 1230.96 485.087Z" fill="white"/>
<path d="M1473.64 570.384C1509.07 567.074 1540.48 593.115 1543.78 628.548C1547.09 663.98 1521.05 695.385 1485.61 698.689C1450.19 701.993 1418.79 675.953 1415.48 640.524C1412.17 605.096 1438.21 573.694 1473.64 570.384ZM1483.42 681.536C1539.73 673.744 1537.35 586.919 1475.53 587.462C1420.04 595.767 1421.52 681.451 1483.42 681.536Z" fill="white"/>
<path d="M1361.96 374.683C1396.93 367.346 1431.19 389.865 1438.33 424.874C1445.46 459.884 1422.74 494.013 1387.69 500.945C1352.93 507.82 1319.14 485.329 1312.06 450.605C1304.99 415.881 1327.28 381.961 1361.96 374.683ZM1375.82 485.156C1380.45 484.542 1385.91 483.959 1390.26 482.288C1434.69 465.216 1426.63 392.502 1376.15 390.638C1331.38 391.857 1317.32 443.512 1346.13 473.82C1353.72 481.801 1365.13 484.116 1375.82 485.156Z" fill="white"/>
<path d="M1759.26 573.192C1769.77 573.089 1780.28 573.04 1790.79 573.045C1795.07 573.076 1799.21 573.205 1803.46 573.68C1857.77 579.747 1869.03 648.417 1833.45 683.117C1826.24 688.498 1814.13 694.72 1805.37 695.089C1795.97 695.485 1761.47 698.073 1755.1 693.266C1751.2 680.34 1753.74 597.273 1753.61 579.424C1753.59 576.833 1757.05 574.544 1759.26 573.192ZM1772.46 680.047C1792.64 680.225 1805.17 682.197 1821.41 669.248C1837.12 650.884 1838.4 615.215 1819.59 598.227C1807.49 587.301 1787.79 589.13 1772.47 589.146L1772.46 680.047Z" fill="white"/>
<path d="M1706.35 376.192C1721.34 376.106 1761.5 373.98 1773.35 379.218C1805.65 393.504 1803.59 433.91 1770.94 447.755C1777.32 460.821 1785.67 473.438 1790.5 487.146C1791.62 490.318 1791.8 496.751 1788.01 498.373C1777.74 502.769 1774.3 494.901 1770.52 487.311L1751.81 449.809H1717.96C1717.85 459.955 1720.56 491.457 1714.55 497.585C1709.18 500.187 1704.41 500.371 1700.4 495.567C1697.71 488.05 1698.29 394.613 1699.84 380.77C1700.07 378.709 1704.16 376.994 1706.35 376.192ZM1770.37 427.532C1776.56 418.146 1778.63 402.408 1767.31 396.218C1755.07 389.524 1732.02 391.992 1717.96 392.146V433.853C1733.28 433.986 1759.53 437.233 1770.37 427.532Z" fill="white"/>
<path d="M2227.25 573.192C2243.33 573.108 2274.14 571.252 2289 574.125C2326.27 581.335 2330.32 629.103 2293.67 644.528C2298.67 654.858 2319.47 686.326 2311.54 695.394C2301.99 700.181 2297.14 691.885 2293.6 684.943C2287.47 672.261 2280.63 659.097 2274.28 646.468L2240.81 646.463C2240.87 659.746 2241.36 673.247 2240.74 686.503C2240.61 689.252 2240 692 2237.83 693.874C2235.7 695.715 2232.75 696.523 2229.97 696.232C2227.33 695.956 2224.7 694.62 2223.12 692.436C2220.71 689.107 2220.3 586.894 2222 579.037C2222.64 576.098 2224.88 574.767 2227.25 573.192ZM2240.81 630.537C2256.13 630.671 2280.61 633.588 2292.27 625.142C2307.66 604.094 2294.66 589.098 2271.11 588.997C2261.06 588.954 2250.88 589.032 2240.81 589.147V630.537Z" fill="white"/>
<path d="M1308.51 573.192C1324.7 573.259 1366.79 570.467 1379.59 576.82C1409.23 591.527 1407.25 631.996 1375.11 644.384C1380.75 656.612 1397.27 680.64 1394.79 692.193C1387.75 701.83 1380.11 694.559 1376.06 686.787C1371.17 677.035 1360.78 654.787 1355.49 646.468L1322.15 646.47C1322.04 657.463 1328.17 699.636 1310.27 696.155C1301.89 694.525 1302.92 683.768 1302.96 677.223C1303.18 644.578 1302.41 611.827 1303.37 579.212C1303.44 576.818 1306.7 574.578 1308.51 573.192ZM1322.15 630.53C1337.95 630.679 1362.51 633.827 1374.21 624.655C1378.75 618.025 1380.69 613.067 1379.17 604.71C1375.24 583.142 1339.05 589.073 1322.15 589.149V630.53Z" fill="white"/>
<path d="M1471.44 376.195C1485.31 376.132 1525.6 374.855 1537.01 378.061C1542.35 379.517 1547.21 382.349 1551.11 386.273C1566.28 401.382 1566.27 427.85 1551.15 442.984C1539.65 454.493 1524.45 452.915 1509.5 452.809H1483.81C1483.85 462.095 1483.96 471.437 1483.86 480.718C1483.79 486.709 1485.11 495.042 1478.9 498.287C1476.34 499.594 1473.37 499.841 1470.63 498.977C1463.51 496.718 1464.41 488.298 1464.51 482.102C1465.02 448.521 1463.35 414.419 1465.32 381.013C1465.45 378.886 1469.85 376.909 1471.44 376.195ZM1483.81 436.853C1499.67 436.997 1524.93 440.181 1536.55 430.497C1541.52 423.656 1543.34 418.093 1541.86 409.484C1537.82 385.94 1501.96 392.307 1483.81 392.147V436.853Z" fill="white"/>
<path d="M1702.11 666.414C1701.39 638.291 1700.96 610.213 1701.2 582.077C1701.25 576.29 1705.66 572.3 1711.49 572.748C1717.16 573.184 1720 576.824 1720.23 582.36C1720.95 599.538 1720.38 616.853 1720.54 634.054C1720.53 651.282 1720.68 668.559 1720.21 685.771C1720.06 691.123 1718.1 692.451 1714.17 695.776C1708.22 696.437 1702.81 696.817 1698.71 691.593C1691.14 681.959 1684.63 671.304 1677.89 661.039L1638.96 601.564C1639.65 622.309 1640.01 643.063 1640.05 663.819C1640.08 671.596 1640.32 680.422 1639.85 688.045C1639.21 698.505 1621.03 699.87 1620.81 687.029C1620.21 652.834 1620.42 618.532 1620.72 584.326C1620.78 578.192 1622.3 576.949 1626.65 573.095C1632.93 572.596 1637.92 572.152 1642.34 577.625C1650.18 587.348 1656.83 598.185 1663.73 608.622C1676.42 627.951 1689.22 647.215 1702.11 666.414Z" fill="white"/>
<path d="M1861.54 375.068C1868.62 375.161 1875.9 377.272 1878.68 384.497C1891.74 418.356 1904.45 452.565 1916.41 486.82C1919.5 493.907 1912.16 502.513 1905.29 498.727C1897.48 494.423 1892.32 474.782 1889.38 466.809H1866.5H1837.77C1834.52 475.066 1829.6 495.574 1821.34 498.863C1819.06 499.746 1816.52 499.646 1814.32 498.587C1810.38 496.679 1809.2 491.069 1810.57 487.2C1822.99 452.169 1835.61 416.938 1849.47 382.465C1851.29 377.925 1857.33 376.178 1861.54 375.068ZM1842.76 451.853H1864.5L1884.5 451.854C1881.74 443.973 1866.35 398.759 1863.32 393.66L1842.76 451.853Z" fill="white"/>
<path d="M2255.49 375.02C2265.92 375.737 2269.75 377.933 2273.38 387.618C2285.9 421.067 2298.85 454.582 2310.27 488.412C2312.8 495.406 2304.08 502.21 2298.33 498.519C2290.45 493.456 2285.88 475.19 2282.96 466.809H2259.5H2231.17C2228.1 474.449 2223 496.542 2214.07 499.215C2207.26 501.255 2201.24 494.33 2204.11 486.528C2216.98 451.496 2229.12 415.745 2243.56 381.347C2245.13 377.591 2251.91 375.877 2255.49 375.02ZM2236.01 451.853H2258.5H2277.85C2273.56 439.655 2261.7 403.392 2256.89 393.504L2236.01 451.853Z" fill="white"/>
<path d="M1094.97 572.208C1104.92 571.813 1111.29 573.395 1115.07 583.561C1127.64 617.325 1140.87 651.056 1152.2 685.244C1154.65 691.281 1145.84 699.759 1140.62 695.94C1132.76 690.183 1128.08 672.492 1124.89 663.468H1103.5L1073.13 663.469C1070.16 671.769 1063.28 700.521 1051.03 695.986C1040.89 692.235 1047.67 678.128 1050.32 671.088C1061.77 640.651 1072.45 609.784 1084.68 579.651C1086.44 575.305 1090.89 573.598 1094.97 572.208ZM1078.2 648.53L1100.5 648.532H1119.82C1117.33 641.371 1100.9 592.766 1098.68 590.785L1078.2 648.53Z" fill="white"/>
<path d="M2433.94 572.216C2443.08 571.478 2449.89 573.253 2453.54 582.462C2465.65 613.02 2476.47 643.919 2487.95 674.74C2490.75 681.475 2495.11 693.188 2484.99 696.419C2474.02 699.919 2466.68 671.21 2463.95 663.463L2442.5 663.468H2412.23C2408.6 672.73 2404.38 691.385 2395.94 695.864C2388.96 696.759 2382.44 692.951 2384.76 685.306C2390 668.029 2396.87 651.062 2403.08 634.074C2409.72 615.878 2416.41 597.588 2423.69 579.644C2425.46 575.293 2429.85 573.615 2433.94 572.216ZM2417.1 648.53L2440.5 648.532L2458.9 648.534C2456.77 642.392 2440.19 593.209 2437.72 590.802C2431.14 609.274 2424.16 630.48 2417.1 648.53Z" fill="white"/>
<path d="M1226.11 571.313C1237.03 570.757 1270.59 572.781 1268.47 589.508C1264.09 594.591 1253.33 592.637 1247.86 590.377C1204.69 572.54 1167.47 624.047 1192.06 662.015C1198.13 671.46 1207.68 678.128 1218.64 680.567C1234.5 683.946 1247.04 680.127 1260.19 671.711V645.955C1251.57 646.142 1228.29 649.411 1226.06 639.134C1227.02 635.215 1227.48 634.571 1230.15 631.531C1239.26 631.528 1264.14 629.989 1272.5 633.057C1278.97 635.431 1278.22 675.762 1274.49 679.53C1238.55 715.808 1168.56 695.923 1164.53 642.269C1161.32 600.879 1185.75 575.295 1226.11 571.313Z" fill="white"/>
<path d="M1663.97 376.514C1666.05 376.256 1667.22 376.986 1669.11 377.83C1673.41 382.254 1673.08 385.656 1669.4 390.197C1662.93 393.818 1615.59 392.186 1604.96 392.15V431.537C1617.84 431.457 1659.28 427.02 1663.04 439.077C1661.69 449.532 1648.29 447.18 1640.26 447.184C1628.51 447.19 1616.72 447.008 1604.96 446.955V483.047H1641.5C1648.8 482.928 1687.8 479.784 1670.08 496.986C1666.88 500.091 1595.15 499.796 1589.48 497.962C1583.87 491.754 1583.89 386.708 1588.76 378.587C1596.07 374.991 1651.23 376.48 1663.97 376.514Z" fill="white"/>
<path d="M1882.56 572.946C1885.54 572.829 1893.55 572.557 1894.7 576.147C1903.79 602.796 1887.08 650.004 1903.79 673.217C1913.93 687.301 1951.04 683.661 1953.38 661.22C1955.35 638.433 1954.19 614.764 1953.97 591.752C1953.7 563.531 1974.58 564.777 1973.81 594.5C1973.78 614.688 1973.76 635.055 1973.69 655.36C1973.5 709.848 1884.37 712.586 1878.03 661.141C1876.15 645.828 1878.19 628.347 1877.74 612.783C1877.46 603.211 1877.01 593.297 1877.28 583.741C1877.52 578.115 1878.23 576.666 1882.56 572.946Z" fill="white"/>
<path d="M2036.91 571.315C2048.49 570.346 2066.69 572.261 2076.98 578.291C2083.32 582.003 2081.69 592.638 2074.6 592.73C2062.19 592.32 2053.56 586.546 2040.56 587.053C2025.09 587.254 2008.62 604.545 2026.19 616.453C2044.97 629.188 2082.97 628.721 2086.12 657.439C2089.4 687.375 2068.37 695.3 2043.48 697.951C2038.33 697.684 1988.01 696.553 2000.43 677.868C2011.31 671.358 2028.29 683.962 2042.19 681.949C2078.57 676.678 2070.85 650.834 2041.34 643.871C2033.09 641.925 2018.32 636.437 2010.48 630.614C1995.45 619.447 1994.61 598.991 2005.52 584.48C2012.84 574.776 2025.38 572.579 2036.91 571.315Z" fill="white"/>
<path d="M2093.85 376.095C2096.44 375.951 2100.17 375.508 2102.5 376.777C2109.14 380.396 2135.65 463.982 2139.96 477.045C2146.18 456.348 2153.64 435.534 2160.84 414.983C2163.06 408.642 2175.59 359.675 2188.74 379.518C2192.54 385.257 2188.4 394.602 2186.04 400.825C2180.84 415.184 2155.09 490.366 2149.66 495.487C2146.69 498.282 2142.7 499.733 2138.63 499.498C2128.63 498.981 2125.27 489.298 2122.47 481.086C2111.43 448.707 2097.46 416.575 2088.36 383.746C2087.7 381.371 2092.37 377.332 2093.85 376.095Z" fill="white"/>
<path d="M1100.84 375.281C1111.74 373.898 1151.3 373.371 1146.29 392.29C1138.55 399.85 1125.24 391.284 1115.99 390.537C1110.3 390.077 1103.78 390.908 1098.33 392.527C1087.3 395.798 1078.04 403.364 1072.63 413.527C1066.06 425.705 1065.34 440.606 1069.39 453.708C1072.85 465.165 1080.84 474.708 1091.52 480.113C1104.64 486.875 1119.16 485.546 1132.75 481.227C1138.93 478.722 1144.58 478.752 1147.17 485.462C1145.02 509.428 1087.63 501.496 1071.9 489.363C1043.46 467.437 1038.39 430.386 1057.26 400.487C1066.83 385.319 1084.51 378.09 1100.84 375.281Z" fill="white"/>
<path d="M1930.06 376.199C1946.01 377.501 2016.31 374.663 2024.15 377.787C2028.61 381.578 2028.82 385.253 2025.39 389.89C2020.11 393.943 1993.81 392.224 1985.81 392.15V462.5C1985.68 470.888 1988.41 490.427 1982.43 497.001C1978.17 501.691 1967.26 500.082 1966.61 491.398C1965.73 479.589 1966.07 467.626 1966.11 455.633L1966.19 392.149C1955.42 392.043 1933.06 394.947 1925.54 388.55C1922.68 382.43 1924.35 379.393 1930.06 376.199Z" fill="white"/>
<path d="M2102.25 573.192C2112.41 573.196 2193.92 571.409 2198.21 575.048C2199.87 576.449 2201.19 578.554 2201.09 580.791C2200.98 582.897 2199.98 584.707 2198.48 586.117C2192.17 592.076 2167.67 589.048 2158.96 588.955V658.5C2158.83 668.407 2163.44 696.041 2149.67 696.344C2146.85 696.398 2144.13 695.293 2142.15 693.286C2137.2 688.376 2139.51 601.26 2139.54 588.955C2132.93 588.955 2078.94 593.431 2102.25 573.192Z" fill="white"/>
<path d="M2515.5 572.934C2520.14 572.677 2523.36 572.431 2527.34 574.82C2531.68 579.484 2530.26 607.78 2530.25 615.044L2530.15 680.047C2544.74 679.916 2559.37 679.75 2573.95 679.78C2579.41 679.791 2592.36 680.456 2591.92 688.213C2591.74 691.409 2589.31 693.689 2587.07 695.697C2576.26 696.204 2521.95 696.78 2514.43 694.286C2507.93 687.421 2511.48 592.377 2511.98 577.696C2512.01 576.632 2514.59 573.848 2515.5 572.934Z" fill="white"/>
<path d="M1573.62 573.027C1574.03 573.006 1574.45 572.986 1574.86 572.969C1588.92 572.366 1588.07 578.116 1588.17 590.267L1588.24 659.281C1588.23 668.851 1588.47 679.959 1587.77 689.592C1587.62 691.575 1584.68 694.479 1583.21 695.964C1581.4 696.066 1579.58 696.114 1577.76 696.108C1574.88 696.075 1573.1 695.388 1571.1 693.302C1567.01 689.041 1568.61 596.081 1568.92 582.532C1569.04 577.533 1570.15 576.336 1573.62 573.027Z" fill="white"/>
<path d="M2053.77 375.986C2055.4 375.942 2057.03 375.946 2058.66 376.11C2061.52 376.398 2064.01 377.079 2065.83 379.46C2068.71 383.242 2068.29 481.487 2067.11 491.8C2066.67 495.696 2064.3 497.271 2061.42 499.563C2056.56 499.632 2053.82 499.692 2050.22 496.453C2048.8 494.318 2048.47 491.917 2048.44 489.375C2048.04 453.727 2047.78 417.941 2048.4 382.307C2048.44 379.83 2051.96 377.397 2053.77 375.986Z" fill="white"/>
<path d="M2346.61 573C2347.72 572.912 2348.82 572.862 2349.93 572.852C2354.74 572.824 2360.47 574.526 2360.78 580.363C2361.28 589.903 2361.04 599.709 2361.04 609.283L2361.02 671.708C2361 682.9 2363.12 688.835 2356.03 695.898C2354.13 696.017 2352.22 696.123 2350.31 696.107C2347.63 696.083 2345.94 695.389 2344.09 693.454C2340.3 689.486 2341.29 593.586 2341.83 580.166C2341.96 576.916 2344.37 575.056 2346.61 573Z" fill="white"/>
</svg>
