<svg width="1350" height="1145" viewBox="0 0 1350 1145" fill="none" xmlns="http://www.w3.org/2000/svg">
<path d="M724.656 581.087C731.742 580.535 745.512 581.177 752.856 581.44C806.177 583.353 858.872 593.579 909.035 611.747L909.029 846.707V916.883C909.029 932.018 908.369 947.634 909.978 962.657C912.272 984.153 917.143 999.512 941.038 1000.9C952.139 1056.04 909.45 1093.78 856.96 1093.78C813.243 1093.78 788.445 1074.04 775.657 1033.18C759.012 1052.7 746.448 1063.82 724.353 1077.04C700.86 1090.55 674.367 1098.01 647.272 1098.75C605.642 1100 564.173 1087.7 533.572 1058.46C484.952 1012 471.373 938.702 469.129 874.458C466.38 795.772 483.912 713.156 539.604 654.557C589.373 602.19 654.061 582.83 724.656 581.087ZM671.73 963.843C698.44 975.603 731.215 973.527 751.748 950.996C750.456 882.197 752.401 812.877 751.597 744.032C751.478 734.052 751.438 723.65 751.689 713.69C740.134 711.924 727.385 710.236 715.665 710.869C692.593 713.216 674.44 724.066 660.017 742.22C629.537 780.604 623.234 834.301 628.116 881.624C631.46 914.036 641.203 947.469 671.73 963.843Z" fill="#322C23"/>
<path d="M841.337 45.1816C869.596 43.4689 897.921 47.1731 924.79 56.0948C966.377 70.2873 999.448 97.3718 1019.05 137.136C1046.4 192.657 1040.8 273.061 1021.6 330.033C985.961 439.014 875.753 493.894 769.856 513.965C692.416 528.642 620.352 532.638 548.21 571.087C514.026 589.054 484.292 614.436 461.181 645.375C451.72 658.162 443.908 671.41 436.854 685.523C432.539 694.159 422.055 686.908 421.516 682.649C419.764 668.813 433.421 644.61 439.824 632.582C484.208 549.213 567.323 494.328 655.751 466.648C686.674 456.748 718.137 451.257 749.428 442.495C845.372 415.628 951.111 326.588 917.453 215.035C904.025 169.287 870.203 145.06 822.755 145.192C766.54 145.348 721.736 171.59 685.989 213.782C680.55 220.208 675.402 226.878 670.57 233.772C666.971 238.841 663.326 244.389 659.199 249.001C656.401 252.129 650.805 252.018 648.406 248.337C645.251 243.494 643.567 237.954 640.627 232.983C631.124 216.919 620.427 201.646 607.636 188.007C587.592 166.547 559.35 145.87 529.008 145.129C499.817 144.415 470.886 156.997 449.962 177.074C415.841 209.816 403.895 257.127 403.209 303.228C402.603 348.379 418.106 393.065 444.602 429.43C450.191 437.101 457.833 444.118 464.318 450.996C467.221 454.076 468.321 455.199 468.174 459.552C463.301 468.294 442.811 450.869 437.973 447.228C386.855 408.752 354.106 354.618 345.294 291.042C335.368 219.42 352.895 145.909 405.225 93.948C445.568 53.8891 505.087 34.1732 559.9 54.4231C605.512 71.2688 640.466 111.815 660.564 155.089C664.816 148.519 671.355 140.364 676.47 134.436C719.053 85.0292 775.597 50.3222 841.337 45.1816Z" fill="#E40326"/>
<path d="M160.222 451.182C165.141 450.906 170.674 450.812 175.575 450.887C208.172 451.195 266.843 449.59 271.11 493.538C272.567 508.543 271.837 527.181 271.832 542.596L271.813 634.858L271.749 941.214L429.077 941.174C429.363 975.88 428.411 1023.57 410.062 1054.24C399.142 1072.49 383.739 1081.64 363.449 1086.43C347.813 1089.55 333.707 1088.9 317.904 1088.88L271.274 1088.82L102.367 1088.9L102.371 678.332L102.38 567.053C102.395 537.313 104.292 484.624 96.8453 458.037C117.973 454.081 138.799 452.257 160.222 451.182Z" fill="#322C23"/>
<path d="M1253.86 581.052C1260.8 580.165 1274.49 582.284 1280.87 584.638C1343.05 607.611 1318.64 684.317 1303.64 728.779C1262.69 716.973 1190.52 714.422 1160.33 749.675C1159.07 862.191 1160.72 976.276 1160.22 1089C1113.65 1087.8 1061.58 1088.85 1014.64 1088.86L998.506 1088.9L998.459 591.094C1036.09 589.855 1079.2 590.882 1117.26 590.884C1121.52 608.741 1127.32 636.913 1132.73 653.815C1140.81 639.949 1142.91 633.364 1154.95 620.808C1182.5 592.078 1215.58 582.127 1253.86 581.052Z" fill="#322C23"/>
</svg>
