<svg width="1317" height="1146" viewBox="0 0 1317 1146" fill="none" xmlns="http://www.w3.org/2000/svg">
<path d="M680.789 596.438C739.578 593.122 822.977 605.091 877.734 627.056V862.818L877.721 934.183C877.715 948.505 876.988 963.727 878.467 977.927C880.853 1000.74 885.522 1013.34 909.714 1016.27C910.344 1020.46 910.974 1024.66 911.103 1028.87C912.415 1071.06 883.638 1100.71 842.938 1107.18C806.669 1112.93 772.947 1104.4 753.468 1071.06C748.96 1063.34 746.684 1056.34 743.983 1048.02C730.472 1064.67 718.704 1075.05 700.904 1086.93C677.528 1102.3 650.597 1111.43 622.691 1113.45C581.599 1116.43 537.856 1105.07 506.522 1077.55C458.978 1035.79 442.825 968.479 438.405 908.028C432.494 827.191 446.842 739.041 501.821 676.32C549.442 621.994 610.628 601.351 680.789 596.438ZM642.91 980.081C659.953 987.123 680.043 988.473 697.309 981.419C705.83 977.843 713.598 972.692 720.202 966.222C719.308 938.755 719.971 907.912 719.971 880.24L720.022 728.688C710.64 727.112 689.2 724.662 680.171 726.244C656.809 729.845 638.374 742.72 624.747 761.916C595.185 803.563 590.871 859.642 598.178 908.781C602.527 938.022 614.663 967.187 642.91 980.081Z" fill="#FEFEFE"/>
<path d="M810.096 60.0846C882.294 54.9063 959.133 87.862 989.274 156.333C1015.36 215.602 1008.75 293.485 987.081 352.618C949.34 456.568 840.822 509.521 738.42 528.824C659.503 543.7 586.774 547.793 513.753 587.542C484.969 603.03 459.401 623.863 438.419 648.924C428.074 661.342 419.243 674.732 411.101 688.668C408.893 692.443 407.446 696.661 405.105 700.353C404.045 702.025 402.664 703.787 400.751 704.513C399.153 705.112 397.457 704.751 395.996 703.954C393.296 702.488 390.542 699.774 389.732 696.738C386.695 685.343 409.571 644.808 416.526 633.358C462.455 557.735 540.651 508.409 623.562 481.961C647.504 474.323 671.683 469.554 696.023 463.581C764.207 446.847 832.591 410.879 869.857 349.144C891.837 312.726 896.679 272.082 886.467 231.018C872.159 185.094 841.118 160.296 792.309 160.146C733.899 159.967 690.087 186.708 653.027 230.203C647.69 236.527 642.654 243.1 637.938 249.9C619.742 275.675 621.284 269.537 607.837 245.978C601.799 235.422 594.942 225.356 587.329 215.872C567.19 190.788 536.348 163.403 503.414 160.416C456.829 156.493 413.95 185.297 392.804 225.713C377.886 254.224 372.452 284.08 371.696 316.007C370.494 366.758 389.206 418.729 423.19 456.532C424.862 458.392 435.676 469.266 435.784 469.704C440.45 488.575 410.872 465.833 406.869 462.455C364.238 430.034 333.374 387.276 319.634 334.842C306.915 285.599 307.901 232.836 325.359 184.942C348.701 120.904 403.12 67.652 473.283 61.8104C543.848 55.9353 601.247 109.907 628.737 170.144C633.058 164.239 637.531 158.447 642.151 152.772C685.239 100.626 742.388 66.6005 810.096 60.0846Z" fill="#FEFEFE"/>
<path d="M122.532 466.52C123.965 466.281 133.835 465.971 135.942 465.983C163.699 466.14 206.548 463.985 228.256 484.162C234.062 489.558 238.929 500.164 239.45 507.653C240.486 522.559 240.061 538.981 240.054 554.019L240.027 644.185L240.099 956.203L398.004 956.138C397.086 990.049 397.244 1029.78 382.77 1061.16C373.419 1081.43 359.836 1092.33 339.176 1099.66C318.557 1105.11 300.965 1103.9 279.929 1103.87L229.17 1103.83L70.9501 1103.95C70.4929 1087.65 70.8582 1069.7 70.8575 1053.3L70.8563 958.73L70.8723 671.773L70.8762 574.374C70.8762 535.956 72.1675 510.919 65.8114 472.993C84.5639 469.645 103.508 467.483 122.532 466.52Z" fill="#FEFEFE"/>
<path d="M1212.46 596.417C1223.11 595.15 1240.15 596.049 1250.13 599.903C1311.37 623.555 1286.97 699.581 1272.02 743.781C1257.21 739.472 1227.95 735.684 1212.53 735.762C1182.26 735.903 1151.16 741.865 1128.98 763.936C1129.44 798.322 1129 833.892 1129.01 868.4L1129.08 1103.94C1084.14 1103.31 1037.63 1103.84 992.573 1103.84L967.082 1103.96C966.677 1083.35 967.018 1061.57 967.018 1040.89V921.462L967.075 605.787C1006.23 606.316 1046.47 605.869 1085.73 605.874C1090.09 626.477 1095.91 648.641 1100.78 669.304C1108.11 658.493 1108.52 652.506 1119.07 640.429C1144.47 611.378 1175.46 599.644 1212.46 596.417Z" fill="#FEFEFE"/>
</svg>
